<svg xmlns="http://www.w3.org/2000/svg" viewBox="0 0 81.7 68.3">
    <path fill="#f8a51b" d="M42.9 22.5s-1.7-8.1-.1-11c1.4-2.8 6.3-2.7 6.3-2.7s3.1-.2 6.6.2c12.7 1.4 20.8 4.8 20.8 4.8s6.5 2.2 4.9 7.1c-.4 1.2-1.3 3.1-3.4 3.9-.2.1-.4 0-.5-.2l-.5-1.5c-.2-.1-1.2-.6-2.1-.9-5.3-2-15.8-3.1-18.6-3.3-4.5-.2-3.8-.7-3.1 3.3C56.3 34.6 62 43.8 66 48.9c2.1 2.5 4.9 2.4 6.8 1.1 0 0 1.5-.9 2.1 1 .6 1.7 2.5 6.9-.2 14.6-.3.9-.9 2.3-1.4 2.6-.4.2-.8.1-1.2-.2-8.2-5.4-16.6-16.5-16.6-16.5C44.7 36.9 42.9 22 42.9 22M40.8 35.2c-2 0-2.8 1.1-2.9 2.7-.8 9-1.1 24.4 0 28.1.7 2.4 2.7 2.3 2.7 2.3h.4s2.4.1 2.8-2.3c.6-3.8.7-16.6 0-27.9-.1-1.8-.9-2.9-3-2.9zM40.5 8.2c1.5.2 3.3-.8 3.8-2.7.4-1.3.7-2.7-.6-4.3C42.3-.6 39.6.1 39.6.1S37.2.7 36.9 3c-.1 1-.1 4.7 3.6 5.2zM38.7 22.6s1.7-8.1.1-11-6.3-2.7-6.3-2.7c-1.8 0-4 0-6.6.2-7.8.6-17.4 2.8-20.8 4.6 0 0-6.5 2.3-4.8 7.3.4 1.2 1.2 3 3.3 3.8.2.1.4 0 .5-.2l.6-1.7c.2-.1 1.1-.4 2-.7 5.3-2 15.8-3.1 18.7-3.2 4.5-.2 3.9-.5 2.9 3.5-.9 3.7-3.1 9.5-3.1 9.5-1.2 3.5-9.4 5.6-10.3 5.9 0 0-2.8 1.1-4 3.7-.6 1.2-.7 1.7-.7 1.7-.2.5.2 1.1 1.2.8l8.7-1.9c.1 0-1.2 1.8-1.2 1.8s-1.3 1.8-1.8 2.6c0 0-1.4 2-1.8 2.4-1.9 2.4-5 2.3-6.8.9 0 0-1.2-.8-1.7 1-.6 1.7-2.6 6.9.1 14.6.3.9.9 2.1 1.5 2.5.5.5.8.1 1.2-.2 5.9-4.5 12.8-11.1 18.3-19.1 6.1-8.7 8.9-18.3 8.9-18.3.7-1.9 1.6-6.3 1.9-7.8z"/>
</svg>